<svg width="142" height="43" viewBox="0 0 142 43" fill="none" xmlns="http://www.w3.org/2000/svg">
<path d="M7.0902 22.9361V33.5H2.02237V9.13636H6.94744V18.4512H7.16158C7.57398 17.3726 8.24018 16.5279 9.16016 15.9173C10.0801 15.2987 11.2341 14.9893 12.622 14.9893C13.8909 14.9893 14.9973 15.2669 15.9411 15.8221C16.8928 16.3693 17.6303 17.1584 18.1538 18.1895C18.6851 19.2125 18.9469 20.4379 18.9389 21.8654V33.5H13.8711V22.7695C13.879 21.6433 13.5935 20.767 13.0146 20.1404C12.4435 19.5139 11.6425 19.2006 10.6115 19.2006C9.92152 19.2006 9.31084 19.3474 8.77947 19.6408C8.25604 19.9342 7.84363 20.3625 7.54226 20.9256C7.24882 21.4808 7.09813 22.1509 7.0902 22.9361ZM31.1832 33.8569C29.3353 33.8569 27.7372 33.4643 26.389 32.6792C25.0487 31.8861 24.0137 30.7837 23.284 29.372C22.5544 27.9524 22.1896 26.3067 22.1896 24.435C22.1896 22.5475 22.5544 20.8978 23.284 19.4862C24.0137 18.0665 25.0487 16.9641 26.389 16.179C27.7372 15.3859 29.3353 14.9893 31.1832 14.9893C33.0311 14.9893 34.6252 15.3859 35.9655 16.179C37.3138 16.9641 38.3527 18.0665 39.0823 19.4862C39.812 20.8978 40.1768 22.5475 40.1768 24.435C40.1768 26.3067 39.812 27.9524 39.0823 29.372C38.3527 30.7837 37.3138 31.8861 35.9655 32.6792C34.6252 33.4643 33.0311 33.8569 31.1832 33.8569ZM31.207 29.9311C32.0477 29.9311 32.7495 29.6932 33.3126 29.2173C33.8757 28.7335 34.3 28.0753 34.5855 27.2425C34.879 26.4098 35.0257 25.4621 35.0257 24.3993C35.0257 23.3366 34.879 22.3888 34.5855 21.5561C34.3 20.7234 33.8757 20.0651 33.3126 19.5813C32.7495 19.0975 32.0477 18.8556 31.207 18.8556C30.3584 18.8556 29.6446 19.0975 29.0657 19.5813C28.4946 20.0651 28.0624 20.7234 27.769 21.5561C27.4834 22.3888 27.3407 23.3366 27.3407 24.3993C27.3407 25.4621 27.4834 26.4098 27.769 27.2425C28.0624 28.0753 28.4946 28.7335 29.0657 29.2173C29.6446 29.6932 30.3584 29.9311 31.207 29.9311ZM43.4721 33.5V15.2273H48.3853V18.4155H48.5756C48.9087 17.2814 49.4678 16.4248 50.253 15.8459C51.0381 15.259 51.9422 14.9656 52.9653 14.9656C53.2191 14.9656 53.4927 14.9814 53.7862 15.0131C54.0796 15.0449 54.3374 15.0885 54.5594 15.144V19.6408C54.3215 19.5694 53.9924 19.506 53.572 19.4505C53.1517 19.3949 52.7671 19.3672 52.4181 19.3672C51.6726 19.3672 51.0064 19.5298 50.4195 19.8549C49.8406 20.1722 49.3806 20.6163 49.0396 21.1873C48.7065 21.7583 48.5399 22.4166 48.5399 23.1621V33.5H43.4721ZM67.8149 15.2273V19.0341H56.8108V15.2273H67.8149ZM59.309 10.8494H64.3769V27.8849C64.3769 28.3529 64.4482 28.7177 64.591 28.9794C64.7338 29.2332 64.932 29.4116 65.1858 29.5147C65.4475 29.6178 65.7489 29.6694 66.0899 29.6694C66.3279 29.6694 66.5658 29.6496 66.8037 29.6099C67.0416 29.5623 67.224 29.5266 67.3509 29.5028L68.148 33.274C67.8942 33.3533 67.5373 33.4445 67.0773 33.5476C66.6173 33.6586 66.0582 33.726 65.3999 33.7498C64.1786 33.7974 63.1079 33.6348 62.1879 33.2621C61.2759 32.8893 60.5661 32.3104 60.0585 31.5252C59.5509 30.7401 59.3011 29.7487 59.309 28.5511V10.8494ZM80.8354 15.2273V19.0341H69.8313V15.2273H80.8354ZM72.3295 10.8494H77.3974V27.8849C77.3974 28.3529 77.4688 28.7177 77.6115 28.9794C77.7543 29.2332 77.9525 29.4116 78.2063 29.5147C78.468 29.6178 78.7694 29.6694 79.1104 29.6694C79.3484 29.6694 79.5863 29.6496 79.8242 29.6099C80.0621 29.5623 80.2446 29.5266 80.3714 29.5028L81.1685 33.274C80.9147 33.3533 80.5578 33.4445 80.0978 33.5476C79.6378 33.6586 79.0787 33.726 78.4205 33.7498C77.1991 33.7974 76.1284 33.6348 75.2085 33.2621C74.2964 32.8893 73.5866 32.3104 73.079 31.5252C72.5714 30.7401 72.3216 29.7487 72.3295 28.5511V10.8494ZM84.1366 33.5V15.2273H89.2045V33.5H84.1366ZM86.6824 12.8718C85.929 12.8718 85.2826 12.622 84.7433 12.1223C84.212 11.6148 83.9463 11.008 83.9463 10.3022C83.9463 9.60428 84.212 9.0055 84.7433 8.50586C85.2826 7.99828 85.929 7.74449 86.6824 7.74449C87.4359 7.74449 88.0783 7.99828 88.6096 8.50586C89.1489 9.0055 89.4186 9.60428 89.4186 10.3022C89.4186 11.008 89.1489 11.6148 88.6096 12.1223C88.0783 12.622 87.4359 12.8718 86.6824 12.8718Z" fill="#197B56"/>
<path d="M101 12.75C101 10.9551 102.455 9.5 104.25 9.5H138.75C140.545 9.5 142 10.9551 142 12.75V30.25C142 32.0449 140.545 33.5 138.75 33.5H104.25C102.455 33.5 101 32.0449 101 30.25V12.75Z" fill="#FDDD3D"/>
<path d="M115.261 20.3199L114.162 20.631C114.093 20.4478 113.991 20.2698 113.856 20.0969C113.724 19.9207 113.545 19.7755 113.317 19.6614C113.088 19.5474 112.796 19.4903 112.44 19.4903C111.953 19.4903 111.547 19.6027 111.222 19.8273C110.9 20.0486 110.74 20.3303 110.74 20.6724C110.74 20.9766 110.85 21.2168 111.072 21.3931C111.293 21.5694 111.638 21.7163 112.109 21.8338L113.291 22.1241C114.003 22.297 114.533 22.5614 114.882 22.9174C115.231 23.27 115.406 23.7245 115.406 24.281C115.406 24.7372 115.275 25.1451 115.012 25.5045C114.753 25.864 114.39 26.1474 113.923 26.3548C113.457 26.5622 112.914 26.6659 112.295 26.6659C111.483 26.6659 110.811 26.4896 110.278 26.1371C109.746 25.7845 109.409 25.2695 109.267 24.592L110.429 24.3017C110.539 24.7303 110.748 25.0518 111.056 25.2661C111.367 25.4804 111.773 25.5875 112.274 25.5875C112.845 25.5875 113.298 25.4665 113.633 25.2246C113.972 24.9792 114.141 24.6854 114.141 24.3432C114.141 24.0667 114.044 23.8351 113.851 23.6484C113.657 23.4583 113.36 23.3166 112.959 23.2233L111.632 22.9122C110.902 22.7394 110.366 22.4715 110.024 22.1086C109.686 21.7422 109.516 21.2842 109.516 20.7347C109.516 20.2853 109.642 19.8878 109.895 19.5422C110.15 19.1965 110.498 18.9252 110.937 18.7282C111.379 18.5312 111.88 18.4327 112.44 18.4327C113.228 18.4327 113.847 18.6055 114.296 18.9511C114.749 19.2968 115.071 19.753 115.261 20.3199ZM120.711 18.5364V19.5733H116.584V18.5364H120.711ZM117.787 16.6284H119.011V24.2187C119.011 24.5644 119.061 24.8236 119.161 24.9964C119.265 25.1658 119.396 25.2799 119.555 25.3386C119.717 25.3939 119.889 25.4216 120.068 25.4216C120.203 25.4216 120.314 25.4147 120.4 25.4009C120.487 25.3836 120.556 25.3697 120.607 25.3594L120.856 26.4585C120.773 26.4896 120.658 26.5207 120.509 26.5518C120.36 26.5864 120.172 26.6037 119.944 26.6037C119.598 26.6037 119.259 26.5294 118.928 26.3808C118.599 26.2321 118.326 26.0057 118.108 25.7016C117.894 25.3974 117.787 25.0137 117.787 24.5506V16.6284ZM125.681 29.6523C125.09 29.6523 124.582 29.5762 124.156 29.4241C123.731 29.2755 123.377 29.0785 123.094 28.8331C122.814 28.5911 122.591 28.3319 122.425 28.0554L123.399 27.371C123.51 27.5162 123.65 27.6821 123.819 27.8688C123.989 28.0589 124.22 28.223 124.514 28.3613C124.811 28.503 125.2 28.5739 125.681 28.5739C126.324 28.5739 126.854 28.4183 127.272 28.1072C127.691 27.7962 127.9 27.3088 127.9 26.6452V25.0276H127.796C127.706 25.1727 127.578 25.3525 127.412 25.5668C127.25 25.7776 127.015 25.966 126.707 26.1319C126.403 26.2943 125.992 26.3756 125.473 26.3756C124.83 26.3756 124.253 26.2235 123.742 25.9193C123.234 25.6152 122.831 25.1727 122.534 24.592C122.24 24.0114 122.093 23.3062 122.093 22.4767C122.093 21.661 122.236 20.9507 122.523 20.3458C122.81 19.7375 123.209 19.2674 123.721 18.9356C124.232 18.6003 124.823 18.4327 125.494 18.4327C126.012 18.4327 126.424 18.5191 126.728 18.6919C127.036 18.8613 127.271 19.0548 127.433 19.2726C127.599 19.4869 127.727 19.6632 127.817 19.8014H127.941V18.5364H129.123V26.7281C129.123 27.4125 128.968 27.969 128.657 28.3976C128.349 28.8296 127.934 29.1459 127.412 29.3464C126.894 29.5503 126.317 29.6523 125.681 29.6523ZM125.639 25.2764C126.13 25.2764 126.545 25.1641 126.884 24.9394C127.222 24.7147 127.48 24.3916 127.656 23.9699C127.832 23.5482 127.92 23.0436 127.92 22.456C127.92 21.8822 127.834 21.3758 127.661 20.9369C127.488 20.4979 127.233 20.154 126.894 19.9051C126.555 19.6562 126.137 19.5318 125.639 19.5318C125.121 19.5318 124.689 19.6632 124.343 19.9259C124.001 20.1885 123.743 20.5411 123.571 20.9835C123.401 21.4259 123.316 21.9168 123.316 22.456C123.316 23.009 123.403 23.4981 123.576 23.9232C123.752 24.3449 124.011 24.6767 124.353 24.9187C124.699 25.1572 125.128 25.2764 125.639 25.2764Z" fill="#685D1C"/>
</svg>
